<svg xmlns="http://www.w3.org/2000/svg" viewBox="0 0 32 32" width="32" height="32">
  <defs>
    <linearGradient id="grad1" x1="0%" y1="0%" x2="100%" y2="100%">
      <stop offset="0%" style="stop-color:#ff6b6b;stop-opacity:1" />
      <stop offset="100%" style="stop-color:#4ecdc4;stop-opacity:1" />
    </linearGradient>
  </defs>
  
  <!-- Background circle -->
  <circle cx="16" cy="16" r="15" fill="url(#grad1)" stroke="#fff" stroke-width="1"/>
  
  <!-- Letter P -->
  <path d="M 10 8 L 10 24 L 12.5 24 L 12.5 17 L 18 17 C 20.2 17 22 15.2 22 13 C 22 10.8 20.2 9 18 9 L 10 8 Z M 12.5 10.5 L 18 10.5 C 18.8 10.5 19.5 11.2 19.5 12 C 19.5 12.8 18.8 13.5 18 13.5 L 12.5 13.5 L 12.5 10.5 Z" fill="white"/>
  
  <!-- Letter W (simplified) -->
  <path d="M 8 20 L 10 26 L 12 20 L 14 26 L 16 20 L 18 26 L 20 20 L 22 26 L 24 20" stroke="white" stroke-width="1.5" fill="none" opacity="0.7"/>
</svg>